<mxfile host="Electron" agent="Mozilla/5.0 (Windows NT 10.0; Win64; x64) AppleWebKit/537.36 (KHTML, like Gecko) draw.io/26.0.9 Chrome/128.0.6613.186 Electron/32.2.5 Safari/537.36" version="26.0.9">
  <diagram name="Страница — 1" id="1-1I1QdHwxsG9mw2ZbXO">
    <mxGraphModel dx="1851" dy="597" grid="1" gridSize="10" guides="1" tooltips="1" connect="1" arrows="1" fold="1" page="1" pageScale="1" pageWidth="827" pageHeight="1169" math="0" shadow="0">
      <root>
        <mxCell id="0" />
        <mxCell id="1" parent="0" />
        <mxCell id="5En9rHPKBQF83rEr6Kjk-2" style="edgeStyle=orthogonalEdgeStyle;rounded=0;orthogonalLoop=1;jettySize=auto;html=1;exitX=0.5;exitY=1;exitDx=0;exitDy=0;" edge="1" parent="1" source="5En9rHPKBQF83rEr6Kjk-1">
          <mxGeometry relative="1" as="geometry">
            <mxPoint x="84.85714285714289" y="70" as="targetPoint" />
          </mxGeometry>
        </mxCell>
        <mxCell id="5En9rHPKBQF83rEr6Kjk-1" value="struct Student" style="shape=process;whiteSpace=wrap;html=1;backgroundOutline=1;" vertex="1" parent="1">
          <mxGeometry x="25" y="20" width="120" height="30" as="geometry" />
        </mxCell>
        <mxCell id="5En9rHPKBQF83rEr6Kjk-3" value="char lastName[30];" style="rounded=0;whiteSpace=wrap;html=1;" vertex="1" parent="1">
          <mxGeometry x="25" y="70" width="120" height="30" as="geometry" />
        </mxCell>
        <mxCell id="5En9rHPKBQF83rEr6Kjk-4" style="edgeStyle=orthogonalEdgeStyle;rounded=0;orthogonalLoop=1;jettySize=auto;html=1;exitX=0.5;exitY=1;exitDx=0;exitDy=0;" edge="1" parent="1">
          <mxGeometry relative="1" as="geometry">
            <mxPoint x="84.85714285714289" y="120" as="targetPoint" />
            <mxPoint x="85" y="100" as="sourcePoint" />
          </mxGeometry>
        </mxCell>
        <mxCell id="5En9rHPKBQF83rEr6Kjk-5" value="char firstName[30];&amp;nbsp;" style="rounded=0;whiteSpace=wrap;html=1;" vertex="1" parent="1">
          <mxGeometry x="25" y="120" width="120" height="30" as="geometry" />
        </mxCell>
        <mxCell id="5En9rHPKBQF83rEr6Kjk-6" style="edgeStyle=orthogonalEdgeStyle;rounded=0;orthogonalLoop=1;jettySize=auto;html=1;exitX=0.5;exitY=1;exitDx=0;exitDy=0;" edge="1" parent="1">
          <mxGeometry relative="1" as="geometry">
            <mxPoint x="84.85714285714289" y="170" as="targetPoint" />
            <mxPoint x="85" y="150" as="sourcePoint" />
          </mxGeometry>
        </mxCell>
        <mxCell id="5En9rHPKBQF83rEr6Kjk-7" value="char middleName[30];" style="rounded=0;whiteSpace=wrap;html=1;" vertex="1" parent="1">
          <mxGeometry x="25" y="170" width="120" height="30" as="geometry" />
        </mxCell>
        <mxCell id="5En9rHPKBQF83rEr6Kjk-8" style="edgeStyle=orthogonalEdgeStyle;rounded=0;orthogonalLoop=1;jettySize=auto;html=1;exitX=0.5;exitY=1;exitDx=0;exitDy=0;" edge="1" parent="1">
          <mxGeometry relative="1" as="geometry">
            <mxPoint x="84.85714285714289" y="220" as="targetPoint" />
            <mxPoint x="85" y="200" as="sourcePoint" />
          </mxGeometry>
        </mxCell>
        <mxCell id="5En9rHPKBQF83rEr6Kjk-9" value="char birthDate[11];" style="rounded=0;whiteSpace=wrap;html=1;" vertex="1" parent="1">
          <mxGeometry x="25" y="220" width="120" height="30" as="geometry" />
        </mxCell>
        <mxCell id="5En9rHPKBQF83rEr6Kjk-10" style="edgeStyle=orthogonalEdgeStyle;rounded=0;orthogonalLoop=1;jettySize=auto;html=1;exitX=0.5;exitY=1;exitDx=0;exitDy=0;" edge="1" parent="1">
          <mxGeometry relative="1" as="geometry">
            <mxPoint x="84.85714285714289" y="270" as="targetPoint" />
            <mxPoint x="85" y="250" as="sourcePoint" />
          </mxGeometry>
        </mxCell>
        <mxCell id="5En9rHPKBQF83rEr6Kjk-11" value="char address[50];&amp;nbsp; &amp;nbsp;" style="rounded=0;whiteSpace=wrap;html=1;" vertex="1" parent="1">
          <mxGeometry x="25" y="270" width="120" height="30" as="geometry" />
        </mxCell>
        <mxCell id="5En9rHPKBQF83rEr6Kjk-12" style="edgeStyle=orthogonalEdgeStyle;rounded=0;orthogonalLoop=1;jettySize=auto;html=1;exitX=0.5;exitY=1;exitDx=0;exitDy=0;" edge="1" parent="1">
          <mxGeometry relative="1" as="geometry">
            <mxPoint x="84.85714285714289" y="320" as="targetPoint" />
            <mxPoint x="85" y="300" as="sourcePoint" />
          </mxGeometry>
        </mxCell>
        <mxCell id="5En9rHPKBQF83rEr6Kjk-13" value="int rating;" style="rounded=0;whiteSpace=wrap;html=1;" vertex="1" parent="1">
          <mxGeometry x="25" y="320" width="120" height="30" as="geometry" />
        </mxCell>
        <mxCell id="5En9rHPKBQF83rEr6Kjk-14" value="{" style="text;html=1;align=center;verticalAlign=middle;resizable=0;points=[];autosize=1;strokeColor=none;fillColor=none;" vertex="1" parent="1">
          <mxGeometry y="38" width="30" height="30" as="geometry" />
        </mxCell>
        <mxCell id="5En9rHPKBQF83rEr6Kjk-15" value="};" style="text;html=1;align=center;verticalAlign=middle;resizable=0;points=[];autosize=1;strokeColor=none;fillColor=none;" vertex="1" parent="1">
          <mxGeometry x="100" y="348" width="30" height="30" as="geometry" />
        </mxCell>
        <mxCell id="5En9rHPKBQF83rEr6Kjk-16" value="void inputString(char* str, int m)" style="shape=process;whiteSpace=wrap;html=1;backgroundOutline=1;" vertex="1" parent="1">
          <mxGeometry x="260" y="20" width="220" height="30" as="geometry" />
        </mxCell>
        <mxCell id="5En9rHPKBQF83rEr6Kjk-17" style="edgeStyle=orthogonalEdgeStyle;rounded=0;orthogonalLoop=1;jettySize=auto;html=1;exitX=0.5;exitY=1;exitDx=0;exitDy=0;" edge="1" parent="1">
          <mxGeometry relative="1" as="geometry">
            <mxPoint x="369.8571428571429" y="70" as="targetPoint" />
            <mxPoint x="370" y="50" as="sourcePoint" />
          </mxGeometry>
        </mxCell>
        <mxCell id="5En9rHPKBQF83rEr6Kjk-19" style="edgeStyle=orthogonalEdgeStyle;rounded=0;orthogonalLoop=1;jettySize=auto;html=1;exitX=0.5;exitY=1;exitDx=0;exitDy=0;" edge="1" parent="1" source="5En9rHPKBQF83rEr6Kjk-18">
          <mxGeometry relative="1" as="geometry">
            <mxPoint x="370.1428571428571" y="120" as="targetPoint" />
          </mxGeometry>
        </mxCell>
        <mxCell id="5En9rHPKBQF83rEr6Kjk-18" value="bool flag = false;" style="rounded=0;whiteSpace=wrap;html=1;" vertex="1" parent="1">
          <mxGeometry x="310" y="70" width="120" height="30" as="geometry" />
        </mxCell>
        <mxCell id="5En9rHPKBQF83rEr6Kjk-21" style="edgeStyle=orthogonalEdgeStyle;rounded=0;orthogonalLoop=1;jettySize=auto;html=1;exitX=0.5;exitY=1;exitDx=0;exitDy=0;" edge="1" parent="1" source="5En9rHPKBQF83rEr6Kjk-20">
          <mxGeometry relative="1" as="geometry">
            <mxPoint x="370.1428571428571" y="190" as="targetPoint" />
          </mxGeometry>
        </mxCell>
        <mxCell id="5En9rHPKBQF83rEr6Kjk-32" style="edgeStyle=orthogonalEdgeStyle;rounded=0;orthogonalLoop=1;jettySize=auto;html=1;exitX=1;exitY=0.5;exitDx=0;exitDy=0;" edge="1" parent="1" source="5En9rHPKBQF83rEr6Kjk-20">
          <mxGeometry relative="1" as="geometry">
            <mxPoint x="580" y="180" as="targetPoint" />
          </mxGeometry>
        </mxCell>
        <mxCell id="5En9rHPKBQF83rEr6Kjk-20" value="while (!flag)" style="rhombus;whiteSpace=wrap;html=1;" vertex="1" parent="1">
          <mxGeometry x="295" y="120" width="150" height="50" as="geometry" />
        </mxCell>
        <mxCell id="5En9rHPKBQF83rEr6Kjk-24" style="edgeStyle=orthogonalEdgeStyle;rounded=0;orthogonalLoop=1;jettySize=auto;html=1;exitX=0.5;exitY=1;exitDx=0;exitDy=0;" edge="1" parent="1" source="5En9rHPKBQF83rEr6Kjk-22" target="5En9rHPKBQF83rEr6Kjk-23">
          <mxGeometry relative="1" as="geometry" />
        </mxCell>
        <mxCell id="5En9rHPKBQF83rEr6Kjk-22" value="cin.getline(str, m);" style="rounded=0;whiteSpace=wrap;html=1;" vertex="1" parent="1">
          <mxGeometry x="310" y="190" width="120" height="30" as="geometry" />
        </mxCell>
        <mxCell id="5En9rHPKBQF83rEr6Kjk-25" style="edgeStyle=orthogonalEdgeStyle;rounded=0;orthogonalLoop=1;jettySize=auto;html=1;exitX=0;exitY=0.5;exitDx=0;exitDy=0;" edge="1" parent="1" source="5En9rHPKBQF83rEr6Kjk-23">
          <mxGeometry relative="1" as="geometry">
            <mxPoint x="280" y="300" as="targetPoint" />
          </mxGeometry>
        </mxCell>
        <mxCell id="5En9rHPKBQF83rEr6Kjk-27" style="edgeStyle=orthogonalEdgeStyle;rounded=0;orthogonalLoop=1;jettySize=auto;html=1;exitX=1;exitY=0.5;exitDx=0;exitDy=0;" edge="1" parent="1" source="5En9rHPKBQF83rEr6Kjk-23">
          <mxGeometry relative="1" as="geometry">
            <mxPoint x="500" y="300" as="targetPoint" />
          </mxGeometry>
        </mxCell>
        <mxCell id="5En9rHPKBQF83rEr6Kjk-23" value="if (str[0] != &#39;\0&#39;)" style="rhombus;whiteSpace=wrap;html=1;" vertex="1" parent="1">
          <mxGeometry x="295" y="240" width="150" height="50" as="geometry" />
        </mxCell>
        <mxCell id="5En9rHPKBQF83rEr6Kjk-29" style="edgeStyle=orthogonalEdgeStyle;rounded=0;orthogonalLoop=1;jettySize=auto;html=1;exitX=0.5;exitY=1;exitDx=0;exitDy=0;" edge="1" parent="1" source="5En9rHPKBQF83rEr6Kjk-26">
          <mxGeometry relative="1" as="geometry">
            <mxPoint x="390" y="400" as="targetPoint" />
            <Array as="points">
              <mxPoint x="280" y="400" />
              <mxPoint x="380" y="400" />
            </Array>
          </mxGeometry>
        </mxCell>
        <mxCell id="5En9rHPKBQF83rEr6Kjk-26" value="flag = true;&amp;nbsp;" style="rounded=0;whiteSpace=wrap;html=1;" vertex="1" parent="1">
          <mxGeometry x="220" y="300" width="120" height="30" as="geometry" />
        </mxCell>
        <mxCell id="5En9rHPKBQF83rEr6Kjk-30" style="edgeStyle=orthogonalEdgeStyle;rounded=0;orthogonalLoop=1;jettySize=auto;html=1;exitX=0.5;exitY=1;exitDx=0;exitDy=0;" edge="1" parent="1" source="5En9rHPKBQF83rEr6Kjk-28">
          <mxGeometry relative="1" as="geometry">
            <mxPoint x="390" y="400" as="targetPoint" />
            <Array as="points">
              <mxPoint x="515" y="400" />
            </Array>
          </mxGeometry>
        </mxCell>
        <mxCell id="5En9rHPKBQF83rEr6Kjk-28" value="cout &amp;lt;&amp;lt; &quot;Ошибка! Ввод не&lt;div&gt;&amp;nbsp;может быть пустым.&amp;nbsp;&lt;/div&gt;&lt;div&gt;Попробуйте снова: &quot;;&lt;/div&gt;" style="shape=parallelogram;perimeter=parallelogramPerimeter;whiteSpace=wrap;html=1;fixedSize=1;" vertex="1" parent="1">
          <mxGeometry x="420" y="300" width="190" height="60" as="geometry" />
        </mxCell>
        <mxCell id="5En9rHPKBQF83rEr6Kjk-31" value="" style="endArrow=classic;html=1;rounded=0;" edge="1" parent="1">
          <mxGeometry width="50" height="50" relative="1" as="geometry">
            <mxPoint x="390" y="400" as="sourcePoint" />
            <mxPoint x="370" y="110" as="targetPoint" />
            <Array as="points">
              <mxPoint x="390" y="430" />
              <mxPoint x="200" y="430" />
              <mxPoint x="200" y="110" />
            </Array>
          </mxGeometry>
        </mxCell>
        <mxCell id="5En9rHPKBQF83rEr6Kjk-33" value="return;" style="ellipse;whiteSpace=wrap;html=1;" vertex="1" parent="1">
          <mxGeometry x="520" y="180" width="120" height="40" as="geometry" />
        </mxCell>
        <mxCell id="5En9rHPKBQF83rEr6Kjk-34" value="{" style="text;html=1;align=center;verticalAlign=middle;resizable=0;points=[];autosize=1;strokeColor=none;fillColor=none;" vertex="1" parent="1">
          <mxGeometry x="305" y="158" width="30" height="30" as="geometry" />
        </mxCell>
        <mxCell id="5En9rHPKBQF83rEr6Kjk-35" value="}" style="text;html=1;align=center;verticalAlign=middle;resizable=0;points=[];autosize=1;strokeColor=none;fillColor=none;" vertex="1" parent="1">
          <mxGeometry x="395" y="418" width="30" height="30" as="geometry" />
        </mxCell>
        <mxCell id="5En9rHPKBQF83rEr6Kjk-36" value="{" style="text;html=1;align=center;verticalAlign=middle;resizable=0;points=[];autosize=1;strokeColor=none;fillColor=none;" vertex="1" parent="1">
          <mxGeometry x="265" y="48" width="30" height="30" as="geometry" />
        </mxCell>
        <mxCell id="5En9rHPKBQF83rEr6Kjk-37" value="}" style="text;html=1;align=center;verticalAlign=middle;resizable=0;points=[];autosize=1;strokeColor=none;fillColor=none;" vertex="1" parent="1">
          <mxGeometry x="625" y="208" width="30" height="30" as="geometry" />
        </mxCell>
        <mxCell id="5En9rHPKBQF83rEr6Kjk-39" style="edgeStyle=orthogonalEdgeStyle;rounded=0;orthogonalLoop=1;jettySize=auto;html=1;exitX=0.5;exitY=1;exitDx=0;exitDy=0;" edge="1" parent="1" source="5En9rHPKBQF83rEr6Kjk-38">
          <mxGeometry relative="1" as="geometry">
            <mxPoint x="170.31034482758628" y="510" as="targetPoint" />
          </mxGeometry>
        </mxCell>
        <mxCell id="5En9rHPKBQF83rEr6Kjk-38" value="void writeStudent(FILE* file, Student&amp;amp; s)" style="shape=process;whiteSpace=wrap;html=1;backgroundOutline=1;" vertex="1" parent="1">
          <mxGeometry x="30" y="460" width="280" height="30" as="geometry" />
        </mxCell>
        <mxCell id="5En9rHPKBQF83rEr6Kjk-47" style="edgeStyle=orthogonalEdgeStyle;rounded=0;orthogonalLoop=1;jettySize=auto;html=1;exitX=0;exitY=0.5;exitDx=0;exitDy=0;" edge="1" parent="1" source="5En9rHPKBQF83rEr6Kjk-42">
          <mxGeometry relative="1" as="geometry">
            <mxPoint x="20" y="590" as="targetPoint" />
          </mxGeometry>
        </mxCell>
        <mxCell id="5En9rHPKBQF83rEr6Kjk-50" style="edgeStyle=orthogonalEdgeStyle;rounded=0;orthogonalLoop=1;jettySize=auto;html=1;exitX=1;exitY=0.5;exitDx=0;exitDy=0;" edge="1" parent="1" source="5En9rHPKBQF83rEr6Kjk-42">
          <mxGeometry relative="1" as="geometry">
            <mxPoint x="170" y="670" as="targetPoint" />
            <Array as="points">
              <mxPoint x="315" y="545" />
              <mxPoint x="315" y="670" />
            </Array>
          </mxGeometry>
        </mxCell>
        <mxCell id="5En9rHPKBQF83rEr6Kjk-42" value="if (fwrite(&amp;amp;s, sizeof(Student), 1, file) != 1)&amp;nbsp;" style="rhombus;whiteSpace=wrap;html=1;" vertex="1" parent="1">
          <mxGeometry x="45" y="510" width="250" height="70" as="geometry" />
        </mxCell>
        <mxCell id="5En9rHPKBQF83rEr6Kjk-49" style="edgeStyle=orthogonalEdgeStyle;rounded=0;orthogonalLoop=1;jettySize=auto;html=1;exitX=0.5;exitY=1;exitDx=0;exitDy=0;" edge="1" parent="1" source="5En9rHPKBQF83rEr6Kjk-48">
          <mxGeometry relative="1" as="geometry">
            <mxPoint x="170" y="670" as="targetPoint" />
            <Array as="points">
              <mxPoint x="10" y="670" />
            </Array>
          </mxGeometry>
        </mxCell>
        <mxCell id="5En9rHPKBQF83rEr6Kjk-48" value="cout &amp;lt;&amp;lt; &quot;Ошибка при&lt;div&gt;&amp;nbsp;записи в файл!&quot;&lt;/div&gt;&lt;div&gt;&amp;nbsp;&amp;lt;&amp;lt; endl;&lt;/div&gt;" style="shape=parallelogram;perimeter=parallelogramPerimeter;whiteSpace=wrap;html=1;fixedSize=1;" vertex="1" parent="1">
          <mxGeometry x="-70" y="590" width="160" height="60" as="geometry" />
        </mxCell>
        <mxCell id="5En9rHPKBQF83rEr6Kjk-51" style="edgeStyle=orthogonalEdgeStyle;rounded=0;orthogonalLoop=1;jettySize=auto;html=1;exitX=0.5;exitY=1;exitDx=0;exitDy=0;" edge="1" parent="1">
          <mxGeometry relative="1" as="geometry">
            <mxPoint x="170.15034482758628" y="690" as="targetPoint" />
            <mxPoint x="169.84" y="670" as="sourcePoint" />
            <Array as="points">
              <mxPoint x="169.84" y="680" />
              <mxPoint x="169.84" y="680" />
            </Array>
          </mxGeometry>
        </mxCell>
        <mxCell id="5En9rHPKBQF83rEr6Kjk-52" value="return;" style="ellipse;whiteSpace=wrap;html=1;" vertex="1" parent="1">
          <mxGeometry x="110" y="690" width="120" height="40" as="geometry" />
        </mxCell>
        <mxCell id="5En9rHPKBQF83rEr6Kjk-53" value="{" style="text;html=1;align=center;verticalAlign=middle;resizable=0;points=[];autosize=1;strokeColor=none;fillColor=none;" vertex="1" parent="1">
          <mxGeometry x="105" y="488" width="30" height="30" as="geometry" />
        </mxCell>
        <mxCell id="5En9rHPKBQF83rEr6Kjk-54" value="}" style="text;html=1;align=center;verticalAlign=middle;resizable=0;points=[];autosize=1;strokeColor=none;fillColor=none;" vertex="1" parent="1">
          <mxGeometry x="225" y="708" width="30" height="30" as="geometry" />
        </mxCell>
        <mxCell id="5En9rHPKBQF83rEr6Kjk-56" style="edgeStyle=orthogonalEdgeStyle;rounded=0;orthogonalLoop=1;jettySize=auto;html=1;exitX=0.5;exitY=1;exitDx=0;exitDy=0;" edge="1" parent="1" source="5En9rHPKBQF83rEr6Kjk-55">
          <mxGeometry relative="1" as="geometry">
            <mxPoint x="639.666666666667" y="510" as="targetPoint" />
          </mxGeometry>
        </mxCell>
        <mxCell id="5En9rHPKBQF83rEr6Kjk-55" value="void addNewStudent(FILE* file, Student&amp;amp; s)" style="shape=process;whiteSpace=wrap;html=1;backgroundOutline=1;" vertex="1" parent="1">
          <mxGeometry x="490" y="458" width="300" height="30" as="geometry" />
        </mxCell>
        <mxCell id="5En9rHPKBQF83rEr6Kjk-57" value="fseek(file, 0, SEEK_END);&amp;nbsp;" style="rounded=0;whiteSpace=wrap;html=1;" vertex="1" parent="1">
          <mxGeometry x="550" y="510" width="180" height="30" as="geometry" />
        </mxCell>
        <mxCell id="5En9rHPKBQF83rEr6Kjk-58" style="edgeStyle=orthogonalEdgeStyle;rounded=0;orthogonalLoop=1;jettySize=auto;html=1;exitX=0.5;exitY=1;exitDx=0;exitDy=0;" edge="1" parent="1">
          <mxGeometry relative="1" as="geometry">
            <mxPoint x="639.666666666667" y="562" as="targetPoint" />
            <mxPoint x="640" y="540" as="sourcePoint" />
          </mxGeometry>
        </mxCell>
        <mxCell id="5En9rHPKBQF83rEr6Kjk-59" value="&lt;div&gt;&amp;nbsp; &amp;nbsp; writeStudent(file, s);&amp;nbsp;&amp;nbsp;&lt;/div&gt;" style="rounded=0;whiteSpace=wrap;html=1;" vertex="1" parent="1">
          <mxGeometry x="580" y="562" width="140" height="30" as="geometry" />
        </mxCell>
        <mxCell id="5En9rHPKBQF83rEr6Kjk-60" value="{" style="text;html=1;align=center;verticalAlign=middle;resizable=0;points=[];autosize=1;strokeColor=none;fillColor=none;" vertex="1" parent="1">
          <mxGeometry x="525" y="478" width="30" height="30" as="geometry" />
        </mxCell>
        <mxCell id="5En9rHPKBQF83rEr6Kjk-61" value="}&lt;div&gt;&lt;br&gt;&lt;/div&gt;" style="text;html=1;align=center;verticalAlign=middle;resizable=0;points=[];autosize=1;strokeColor=none;fillColor=none;" vertex="1" parent="1">
          <mxGeometry x="695" y="593" width="30" height="40" as="geometry" />
        </mxCell>
        <mxCell id="5En9rHPKBQF83rEr6Kjk-62" style="edgeStyle=orthogonalEdgeStyle;rounded=0;orthogonalLoop=1;jettySize=auto;html=1;exitX=0.5;exitY=1;exitDx=0;exitDy=0;" edge="1" parent="1" source="5En9rHPKBQF83rEr6Kjk-63">
          <mxGeometry relative="1" as="geometry">
            <mxPoint x="1099.666666666667" y="90" as="targetPoint" />
          </mxGeometry>
        </mxCell>
        <mxCell id="5En9rHPKBQF83rEr6Kjk-63" value="void printFile(FILE* file)&amp;nbsp;" style="shape=process;whiteSpace=wrap;html=1;backgroundOutline=1;" vertex="1" parent="1">
          <mxGeometry x="1010" y="38" width="200" height="30" as="geometry" />
        </mxCell>
        <mxCell id="5En9rHPKBQF83rEr6Kjk-64" value="fseek(file, 0, SEEK_SET);&amp;nbsp;" style="rounded=0;whiteSpace=wrap;html=1;" vertex="1" parent="1">
          <mxGeometry x="1015" y="90" width="180" height="30" as="geometry" />
        </mxCell>
        <mxCell id="5En9rHPKBQF83rEr6Kjk-65" style="edgeStyle=orthogonalEdgeStyle;rounded=0;orthogonalLoop=1;jettySize=auto;html=1;exitX=0.5;exitY=1;exitDx=0;exitDy=0;" edge="1" parent="1">
          <mxGeometry relative="1" as="geometry">
            <mxPoint x="1099.666666666667" y="142" as="targetPoint" />
            <mxPoint x="1100" y="120" as="sourcePoint" />
          </mxGeometry>
        </mxCell>
        <mxCell id="5En9rHPKBQF83rEr6Kjk-66" value="&lt;div&gt;Student s;&lt;/div&gt;" style="rounded=0;whiteSpace=wrap;html=1;" vertex="1" parent="1">
          <mxGeometry x="1040" y="142" width="130" height="30" as="geometry" />
        </mxCell>
        <mxCell id="5En9rHPKBQF83rEr6Kjk-67" value="{" style="text;html=1;align=center;verticalAlign=middle;resizable=0;points=[];autosize=1;strokeColor=none;fillColor=none;" vertex="1" parent="1">
          <mxGeometry x="985" y="58" width="30" height="30" as="geometry" />
        </mxCell>
        <mxCell id="5En9rHPKBQF83rEr6Kjk-69" style="edgeStyle=orthogonalEdgeStyle;rounded=0;orthogonalLoop=1;jettySize=auto;html=1;exitX=0.466;exitY=1.091;exitDx=0;exitDy=0;exitPerimeter=0;" edge="1" parent="1" source="5En9rHPKBQF83rEr6Kjk-66">
          <mxGeometry relative="1" as="geometry">
            <mxPoint x="1100.142857142857" y="208" as="targetPoint" />
            <mxPoint x="1100" y="188" as="sourcePoint" />
          </mxGeometry>
        </mxCell>
        <mxCell id="5En9rHPKBQF83rEr6Kjk-86" style="edgeStyle=orthogonalEdgeStyle;rounded=0;orthogonalLoop=1;jettySize=auto;html=1;exitX=0.5;exitY=1;exitDx=0;exitDy=0;" edge="1" parent="1" source="5En9rHPKBQF83rEr6Kjk-72">
          <mxGeometry relative="1" as="geometry">
            <mxPoint x="1100.2857142857142" y="290" as="targetPoint" />
          </mxGeometry>
        </mxCell>
        <mxCell id="5En9rHPKBQF83rEr6Kjk-100" style="edgeStyle=orthogonalEdgeStyle;rounded=0;orthogonalLoop=1;jettySize=auto;html=1;exitX=1;exitY=0.5;exitDx=0;exitDy=0;" edge="1" parent="1" source="5En9rHPKBQF83rEr6Kjk-72">
          <mxGeometry relative="1" as="geometry">
            <mxPoint x="1270" y="279.9999999999999" as="targetPoint" />
          </mxGeometry>
        </mxCell>
        <mxCell id="5En9rHPKBQF83rEr6Kjk-72" value="while (fread(&amp;amp;s, sizeof&lt;div&gt;(Student), 1, file) == 1)&amp;nbsp;&lt;/div&gt;" style="rhombus;whiteSpace=wrap;html=1;" vertex="1" parent="1">
          <mxGeometry x="1000" y="208" width="200" height="62" as="geometry" />
        </mxCell>
        <mxCell id="5En9rHPKBQF83rEr6Kjk-84" value="{" style="text;html=1;align=center;verticalAlign=middle;resizable=0;points=[];autosize=1;strokeColor=none;fillColor=none;" vertex="1" parent="1">
          <mxGeometry x="1035" y="250" width="30" height="30" as="geometry" />
        </mxCell>
        <mxCell id="5En9rHPKBQF83rEr6Kjk-87" value="cout &amp;lt;&amp;lt; &quot;Фамилия: &quot; &amp;lt;&amp;lt; s.lastName &amp;lt;&amp;lt; endl;" style="shape=parallelogram;perimeter=parallelogramPerimeter;whiteSpace=wrap;html=1;fixedSize=1;" vertex="1" parent="1">
          <mxGeometry x="1020" y="290" width="170" height="40" as="geometry" />
        </mxCell>
        <mxCell id="5En9rHPKBQF83rEr6Kjk-88" style="edgeStyle=orthogonalEdgeStyle;rounded=0;orthogonalLoop=1;jettySize=auto;html=1;exitX=0.5;exitY=1;exitDx=0;exitDy=0;" edge="1" parent="1">
          <mxGeometry relative="1" as="geometry">
            <mxPoint x="1100.2857142857142" y="350" as="targetPoint" />
            <mxPoint x="1100" y="330" as="sourcePoint" />
          </mxGeometry>
        </mxCell>
        <mxCell id="5En9rHPKBQF83rEr6Kjk-89" value="cout &amp;lt;&amp;lt; &quot;Имя: &quot; &amp;lt;&amp;lt;&lt;div&gt;&amp;nbsp;s.firstName &amp;lt;&amp;lt; endl;&lt;/div&gt;" style="shape=parallelogram;perimeter=parallelogramPerimeter;whiteSpace=wrap;html=1;fixedSize=1;" vertex="1" parent="1">
          <mxGeometry x="1020" y="350" width="170" height="40" as="geometry" />
        </mxCell>
        <mxCell id="5En9rHPKBQF83rEr6Kjk-90" style="edgeStyle=orthogonalEdgeStyle;rounded=0;orthogonalLoop=1;jettySize=auto;html=1;exitX=0.5;exitY=1;exitDx=0;exitDy=0;" edge="1" parent="1">
          <mxGeometry relative="1" as="geometry">
            <mxPoint x="1100.2857142857142" y="410" as="targetPoint" />
            <mxPoint x="1100" y="390" as="sourcePoint" />
          </mxGeometry>
        </mxCell>
        <mxCell id="5En9rHPKBQF83rEr6Kjk-91" value="cout &amp;lt;&amp;lt; &quot;Отчество: &quot; &amp;lt;&amp;lt; s.middleName &amp;lt;&amp;lt; endl;" style="shape=parallelogram;perimeter=parallelogramPerimeter;whiteSpace=wrap;html=1;fixedSize=1;" vertex="1" parent="1">
          <mxGeometry x="1020" y="410" width="170" height="40" as="geometry" />
        </mxCell>
        <mxCell id="5En9rHPKBQF83rEr6Kjk-92" style="edgeStyle=orthogonalEdgeStyle;rounded=0;orthogonalLoop=1;jettySize=auto;html=1;exitX=0.5;exitY=1;exitDx=0;exitDy=0;" edge="1" parent="1">
          <mxGeometry relative="1" as="geometry">
            <mxPoint x="1100.2857142857142" y="470" as="targetPoint" />
            <mxPoint x="1100" y="450" as="sourcePoint" />
          </mxGeometry>
        </mxCell>
        <mxCell id="5En9rHPKBQF83rEr6Kjk-93" value="cout &amp;lt;&amp;lt; &quot;Дата рождения: &quot;&lt;div&gt;&amp;nbsp;&amp;lt;&amp;lt; s.birthDate &amp;lt;&amp;lt; endl;&lt;/div&gt;" style="shape=parallelogram;perimeter=parallelogramPerimeter;whiteSpace=wrap;html=1;fixedSize=1;" vertex="1" parent="1">
          <mxGeometry x="1020" y="470" width="170" height="40" as="geometry" />
        </mxCell>
        <mxCell id="5En9rHPKBQF83rEr6Kjk-94" style="edgeStyle=orthogonalEdgeStyle;rounded=0;orthogonalLoop=1;jettySize=auto;html=1;exitX=0.5;exitY=1;exitDx=0;exitDy=0;" edge="1" parent="1">
          <mxGeometry relative="1" as="geometry">
            <mxPoint x="1100.2857142857142" y="530" as="targetPoint" />
            <mxPoint x="1100" y="510" as="sourcePoint" />
          </mxGeometry>
        </mxCell>
        <mxCell id="5En9rHPKBQF83rEr6Kjk-95" value="cout &amp;lt;&amp;lt; &quot;Адрес: &quot; &amp;lt;&amp;lt;&amp;nbsp;&lt;div&gt;s.address &amp;lt;&amp;lt; endl;&lt;/div&gt;" style="shape=parallelogram;perimeter=parallelogramPerimeter;whiteSpace=wrap;html=1;fixedSize=1;" vertex="1" parent="1">
          <mxGeometry x="1020" y="530" width="170" height="40" as="geometry" />
        </mxCell>
        <mxCell id="5En9rHPKBQF83rEr6Kjk-96" style="edgeStyle=orthogonalEdgeStyle;rounded=0;orthogonalLoop=1;jettySize=auto;html=1;exitX=0.5;exitY=1;exitDx=0;exitDy=0;" edge="1" parent="1">
          <mxGeometry relative="1" as="geometry">
            <mxPoint x="1100.2857142857142" y="590" as="targetPoint" />
            <mxPoint x="1100" y="570" as="sourcePoint" />
          </mxGeometry>
        </mxCell>
        <mxCell id="5En9rHPKBQF83rEr6Kjk-99" style="edgeStyle=orthogonalEdgeStyle;rounded=0;orthogonalLoop=1;jettySize=auto;html=1;exitX=0.5;exitY=1;exitDx=0;exitDy=0;" edge="1" parent="1" source="5En9rHPKBQF83rEr6Kjk-97">
          <mxGeometry relative="1" as="geometry">
            <mxPoint x="1100" y="189.9999999999999" as="targetPoint" />
            <Array as="points">
              <mxPoint x="1105" y="650" />
              <mxPoint x="990" y="650" />
              <mxPoint x="990" y="190" />
            </Array>
          </mxGeometry>
        </mxCell>
        <mxCell id="5En9rHPKBQF83rEr6Kjk-97" value="cout &amp;lt;&amp;lt; &quot;Рейтинг: &quot; &amp;lt;&amp;lt;&amp;nbsp;&lt;div&gt;s.rating &amp;lt;&amp;lt; endl;&lt;/div&gt;" style="shape=parallelogram;perimeter=parallelogramPerimeter;whiteSpace=wrap;html=1;fixedSize=1;" vertex="1" parent="1">
          <mxGeometry x="1020" y="590" width="170" height="40" as="geometry" />
        </mxCell>
        <mxCell id="5En9rHPKBQF83rEr6Kjk-98" value="}" style="text;html=1;align=center;verticalAlign=middle;resizable=0;points=[];autosize=1;strokeColor=none;fillColor=none;" vertex="1" parent="1">
          <mxGeometry x="1175" y="608" width="30" height="30" as="geometry" />
        </mxCell>
        <mxCell id="5En9rHPKBQF83rEr6Kjk-101" value="return;" style="ellipse;whiteSpace=wrap;html=1;" vertex="1" parent="1">
          <mxGeometry x="1210" y="280" width="120" height="40" as="geometry" />
        </mxCell>
        <mxCell id="5En9rHPKBQF83rEr6Kjk-102" value="}" style="text;html=1;align=center;verticalAlign=middle;resizable=0;points=[];autosize=1;strokeColor=none;fillColor=none;" vertex="1" parent="1">
          <mxGeometry x="1325" y="298" width="30" height="30" as="geometry" />
        </mxCell>
        <mxCell id="5En9rHPKBQF83rEr6Kjk-103" style="edgeStyle=orthogonalEdgeStyle;rounded=0;orthogonalLoop=1;jettySize=auto;html=1;exitX=0.5;exitY=1;exitDx=0;exitDy=0;" edge="1" parent="1" source="5En9rHPKBQF83rEr6Kjk-104">
          <mxGeometry relative="1" as="geometry">
            <mxPoint x="1529.666666666667" y="77" as="targetPoint" />
          </mxGeometry>
        </mxCell>
        <mxCell id="5En9rHPKBQF83rEr6Kjk-104" value="void deleteStudent(FILE* file, const char* birthDate)" style="shape=process;whiteSpace=wrap;html=1;backgroundOutline=1;" vertex="1" parent="1">
          <mxGeometry x="1380" y="25" width="300" height="30" as="geometry" />
        </mxCell>
        <mxCell id="5En9rHPKBQF83rEr6Kjk-105" value="FILE* tempFile = fopen(&quot;temp.dat&quot;, &quot;wb&quot;);" style="rounded=0;whiteSpace=wrap;html=1;" vertex="1" parent="1">
          <mxGeometry x="1440" y="77" width="180" height="30" as="geometry" />
        </mxCell>
        <mxCell id="5En9rHPKBQF83rEr6Kjk-106" style="edgeStyle=orthogonalEdgeStyle;rounded=0;orthogonalLoop=1;jettySize=auto;html=1;exitX=0.5;exitY=1;exitDx=0;exitDy=0;" edge="1" parent="1">
          <mxGeometry relative="1" as="geometry">
            <mxPoint x="1529.666666666667" y="129" as="targetPoint" />
            <mxPoint x="1530" y="107" as="sourcePoint" />
          </mxGeometry>
        </mxCell>
        <mxCell id="5En9rHPKBQF83rEr6Kjk-107" value="&lt;div&gt;fseek(file, 0, SEEK_SET);&lt;/div&gt;" style="rounded=0;whiteSpace=wrap;html=1;" vertex="1" parent="1">
          <mxGeometry x="1460" y="130" width="140" height="30" as="geometry" />
        </mxCell>
        <mxCell id="5En9rHPKBQF83rEr6Kjk-108" value="{" style="text;html=1;align=center;verticalAlign=middle;resizable=0;points=[];autosize=1;strokeColor=none;fillColor=none;" vertex="1" parent="1">
          <mxGeometry x="1415" y="45" width="30" height="30" as="geometry" />
        </mxCell>
        <mxCell id="5En9rHPKBQF83rEr6Kjk-111" style="edgeStyle=orthogonalEdgeStyle;rounded=0;orthogonalLoop=1;jettySize=auto;html=1;exitX=0.5;exitY=1;exitDx=0;exitDy=0;" edge="1" parent="1">
          <mxGeometry relative="1" as="geometry">
            <mxPoint x="1529.666666666667" y="180" as="targetPoint" />
            <mxPoint x="1530" y="158" as="sourcePoint" />
          </mxGeometry>
        </mxCell>
        <mxCell id="5En9rHPKBQF83rEr6Kjk-112" value="&lt;div&gt;Student s;&lt;/div&gt;" style="rounded=0;whiteSpace=wrap;html=1;" vertex="1" parent="1">
          <mxGeometry x="1460" y="181" width="140" height="30" as="geometry" />
        </mxCell>
        <mxCell id="5En9rHPKBQF83rEr6Kjk-113" style="edgeStyle=orthogonalEdgeStyle;rounded=0;orthogonalLoop=1;jettySize=auto;html=1;exitX=0.5;exitY=1;exitDx=0;exitDy=0;" edge="1" parent="1">
          <mxGeometry relative="1" as="geometry">
            <mxPoint x="1529.666666666667" y="234.5" as="targetPoint" />
            <mxPoint x="1530" y="212.5" as="sourcePoint" />
          </mxGeometry>
        </mxCell>
        <mxCell id="5En9rHPKBQF83rEr6Kjk-114" value="&lt;div&gt;bool found = false;&lt;/div&gt;" style="rounded=0;whiteSpace=wrap;html=1;" vertex="1" parent="1">
          <mxGeometry x="1460" y="235.5" width="140" height="30" as="geometry" />
        </mxCell>
        <mxCell id="5En9rHPKBQF83rEr6Kjk-115" style="edgeStyle=orthogonalEdgeStyle;rounded=0;orthogonalLoop=1;jettySize=auto;html=1;exitX=0.5;exitY=1;exitDx=0;exitDy=0;" edge="1" parent="1">
          <mxGeometry relative="1" as="geometry">
            <mxPoint x="1540.142857142857" y="285.5" as="targetPoint" />
            <mxPoint x="1540" y="265.5" as="sourcePoint" />
          </mxGeometry>
        </mxCell>
        <mxCell id="5En9rHPKBQF83rEr6Kjk-116" style="edgeStyle=orthogonalEdgeStyle;rounded=0;orthogonalLoop=1;jettySize=auto;html=1;exitX=0.5;exitY=1;exitDx=0;exitDy=0;" edge="1" parent="1" source="5En9rHPKBQF83rEr6Kjk-118">
          <mxGeometry relative="1" as="geometry">
            <mxPoint x="1540.142857142857" y="355.5" as="targetPoint" />
          </mxGeometry>
        </mxCell>
        <mxCell id="5En9rHPKBQF83rEr6Kjk-117" style="edgeStyle=orthogonalEdgeStyle;rounded=0;orthogonalLoop=1;jettySize=auto;html=1;exitX=1;exitY=0.5;exitDx=0;exitDy=0;" edge="1" parent="1" source="5En9rHPKBQF83rEr6Kjk-118">
          <mxGeometry relative="1" as="geometry">
            <mxPoint x="1850" y="360" as="targetPoint" />
          </mxGeometry>
        </mxCell>
        <mxCell id="5En9rHPKBQF83rEr6Kjk-118" value="&lt;font style=&quot;font-size: 9px;&quot;&gt;while (fread(&amp;amp;s,&amp;nbsp;&lt;/font&gt;&lt;div&gt;&lt;font style=&quot;font-size: 9px;&quot;&gt;sizeof(Student), 1, file)&amp;nbsp;&lt;/font&gt;&lt;/div&gt;&lt;div&gt;&lt;font style=&quot;font-size: 9px;&quot;&gt;== 1)&lt;/font&gt;&lt;/div&gt;" style="rhombus;whiteSpace=wrap;html=1;" vertex="1" parent="1">
          <mxGeometry x="1465" y="285.5" width="150" height="50" as="geometry" />
        </mxCell>
        <mxCell id="5En9rHPKBQF83rEr6Kjk-119" style="edgeStyle=orthogonalEdgeStyle;rounded=0;orthogonalLoop=1;jettySize=auto;html=1;exitX=0.5;exitY=1;exitDx=0;exitDy=0;" edge="1" parent="1" target="5En9rHPKBQF83rEr6Kjk-123">
          <mxGeometry relative="1" as="geometry">
            <mxPoint x="1540" y="335.5" as="sourcePoint" />
          </mxGeometry>
        </mxCell>
        <mxCell id="5En9rHPKBQF83rEr6Kjk-121" style="edgeStyle=orthogonalEdgeStyle;rounded=0;orthogonalLoop=1;jettySize=auto;html=1;exitX=0;exitY=0.5;exitDx=0;exitDy=0;" edge="1" parent="1" source="5En9rHPKBQF83rEr6Kjk-123">
          <mxGeometry relative="1" as="geometry">
            <mxPoint x="1450" y="415.5" as="targetPoint" />
          </mxGeometry>
        </mxCell>
        <mxCell id="5En9rHPKBQF83rEr6Kjk-122" style="edgeStyle=orthogonalEdgeStyle;rounded=0;orthogonalLoop=1;jettySize=auto;html=1;exitX=1;exitY=0.5;exitDx=0;exitDy=0;" edge="1" parent="1" source="5En9rHPKBQF83rEr6Kjk-123">
          <mxGeometry relative="1" as="geometry">
            <mxPoint x="1670" y="415.5" as="targetPoint" />
          </mxGeometry>
        </mxCell>
        <mxCell id="5En9rHPKBQF83rEr6Kjk-123" value="&lt;font style=&quot;font-size: 8px;&quot;&gt;if (strcmp(s.birthDate,&amp;nbsp;&lt;/font&gt;&lt;div&gt;&lt;font style=&quot;font-size: 8px;&quot;&gt;birthDate) != 0)&lt;/font&gt;&lt;/div&gt;" style="rhombus;whiteSpace=wrap;html=1;" vertex="1" parent="1">
          <mxGeometry x="1465" y="355.5" width="150" height="50" as="geometry" />
        </mxCell>
        <mxCell id="5En9rHPKBQF83rEr6Kjk-124" style="edgeStyle=orthogonalEdgeStyle;rounded=0;orthogonalLoop=1;jettySize=auto;html=1;exitX=0.5;exitY=1;exitDx=0;exitDy=0;" edge="1" parent="1" source="5En9rHPKBQF83rEr6Kjk-125">
          <mxGeometry relative="1" as="geometry">
            <mxPoint x="1560" y="515.5" as="targetPoint" />
            <Array as="points">
              <mxPoint x="1450" y="515.5" />
              <mxPoint x="1550" y="515.5" />
            </Array>
          </mxGeometry>
        </mxCell>
        <mxCell id="5En9rHPKBQF83rEr6Kjk-125" value="fwrite(&amp;amp;s, sizeof(Student), 1, tempFile);" style="rounded=0;whiteSpace=wrap;html=1;" vertex="1" parent="1">
          <mxGeometry x="1380" y="415.5" width="140" height="30" as="geometry" />
        </mxCell>
        <mxCell id="5En9rHPKBQF83rEr6Kjk-126" style="edgeStyle=orthogonalEdgeStyle;rounded=0;orthogonalLoop=1;jettySize=auto;html=1;exitX=0.528;exitY=0.976;exitDx=0;exitDy=0;exitPerimeter=0;" edge="1" parent="1" source="5En9rHPKBQF83rEr6Kjk-133">
          <mxGeometry relative="1" as="geometry">
            <mxPoint x="1560" y="515.5" as="targetPoint" />
            <Array as="points">
              <mxPoint x="1669" y="515" />
            </Array>
            <mxPoint x="1685" y="475.5" as="sourcePoint" />
          </mxGeometry>
        </mxCell>
        <mxCell id="5En9rHPKBQF83rEr6Kjk-128" value="" style="endArrow=classic;html=1;rounded=0;" edge="1" parent="1">
          <mxGeometry width="50" height="50" relative="1" as="geometry">
            <mxPoint x="1560" y="520" as="sourcePoint" />
            <mxPoint x="1540" y="275.5" as="targetPoint" />
            <Array as="points">
              <mxPoint x="1560" y="530" />
              <mxPoint x="1470" y="530" />
              <mxPoint x="1370" y="530" />
              <mxPoint x="1370" y="275.5" />
            </Array>
          </mxGeometry>
        </mxCell>
        <mxCell id="5En9rHPKBQF83rEr6Kjk-130" value="{" style="text;html=1;align=center;verticalAlign=middle;resizable=0;points=[];autosize=1;strokeColor=none;fillColor=none;" vertex="1" parent="1">
          <mxGeometry x="1475" y="323.5" width="30" height="30" as="geometry" />
        </mxCell>
        <mxCell id="5En9rHPKBQF83rEr6Kjk-131" value="}" style="text;html=1;align=center;verticalAlign=middle;resizable=0;points=[];autosize=1;strokeColor=none;fillColor=none;" vertex="1" parent="1">
          <mxGeometry x="1560" y="510" width="30" height="30" as="geometry" />
        </mxCell>
        <mxCell id="5En9rHPKBQF83rEr6Kjk-133" value="found = true;" style="rounded=0;whiteSpace=wrap;html=1;" vertex="1" parent="1">
          <mxGeometry x="1595" y="415" width="140" height="30" as="geometry" />
        </mxCell>
        <mxCell id="5En9rHPKBQF83rEr6Kjk-137" style="edgeStyle=orthogonalEdgeStyle;rounded=0;orthogonalLoop=1;jettySize=auto;html=1;exitX=0.5;exitY=1;exitDx=0;exitDy=0;" edge="1" parent="1" source="5En9rHPKBQF83rEr6Kjk-136">
          <mxGeometry relative="1" as="geometry">
            <mxPoint x="1850" y="410" as="targetPoint" />
          </mxGeometry>
        </mxCell>
        <mxCell id="5En9rHPKBQF83rEr6Kjk-136" value="fclose(file);" style="rounded=0;whiteSpace=wrap;html=1;" vertex="1" parent="1">
          <mxGeometry x="1780" y="360" width="140" height="30" as="geometry" />
        </mxCell>
        <mxCell id="5En9rHPKBQF83rEr6Kjk-138" style="edgeStyle=orthogonalEdgeStyle;rounded=0;orthogonalLoop=1;jettySize=auto;html=1;exitX=0.5;exitY=1;exitDx=0;exitDy=0;" edge="1" parent="1" source="5En9rHPKBQF83rEr6Kjk-139">
          <mxGeometry relative="1" as="geometry">
            <mxPoint x="1850" y="458" as="targetPoint" />
          </mxGeometry>
        </mxCell>
        <mxCell id="5En9rHPKBQF83rEr6Kjk-139" value="fclose(tempFile);" style="rounded=0;whiteSpace=wrap;html=1;" vertex="1" parent="1">
          <mxGeometry x="1780" y="408" width="140" height="30" as="geometry" />
        </mxCell>
        <mxCell id="5En9rHPKBQF83rEr6Kjk-141" style="edgeStyle=orthogonalEdgeStyle;rounded=0;orthogonalLoop=1;jettySize=auto;html=1;exitX=0;exitY=0.5;exitDx=0;exitDy=0;" edge="1" parent="1" source="5En9rHPKBQF83rEr6Kjk-140">
          <mxGeometry relative="1" as="geometry">
            <mxPoint x="1760" y="520" as="targetPoint" />
          </mxGeometry>
        </mxCell>
        <mxCell id="5En9rHPKBQF83rEr6Kjk-147" style="edgeStyle=orthogonalEdgeStyle;rounded=0;orthogonalLoop=1;jettySize=auto;html=1;exitX=1;exitY=0.5;exitDx=0;exitDy=0;" edge="1" parent="1" source="5En9rHPKBQF83rEr6Kjk-140">
          <mxGeometry relative="1" as="geometry">
            <mxPoint x="1990" y="520" as="targetPoint" />
          </mxGeometry>
        </mxCell>
        <mxCell id="5En9rHPKBQF83rEr6Kjk-140" value="if (found)&amp;nbsp;" style="rhombus;whiteSpace=wrap;html=1;" vertex="1" parent="1">
          <mxGeometry x="1810" y="458" width="80" height="52" as="geometry" />
        </mxCell>
        <mxCell id="5En9rHPKBQF83rEr6Kjk-142" value="remove(&quot;students.dat&quot;);" style="rounded=0;whiteSpace=wrap;html=1;" vertex="1" parent="1">
          <mxGeometry x="1690" y="520" width="140" height="30" as="geometry" />
        </mxCell>
        <mxCell id="5En9rHPKBQF83rEr6Kjk-143" style="edgeStyle=orthogonalEdgeStyle;rounded=0;orthogonalLoop=1;jettySize=auto;html=1;exitX=0.5;exitY=1;exitDx=0;exitDy=0;" edge="1" parent="1">
          <mxGeometry relative="1" as="geometry">
            <mxPoint x="1760" y="570" as="targetPoint" />
            <mxPoint x="1760" y="550" as="sourcePoint" />
          </mxGeometry>
        </mxCell>
        <mxCell id="5En9rHPKBQF83rEr6Kjk-145" style="edgeStyle=orthogonalEdgeStyle;rounded=0;orthogonalLoop=1;jettySize=auto;html=1;exitX=0.5;exitY=1;exitDx=0;exitDy=0;" edge="1" parent="1" source="5En9rHPKBQF83rEr6Kjk-144">
          <mxGeometry relative="1" as="geometry">
            <mxPoint x="1760.2857142857142" y="620" as="targetPoint" />
          </mxGeometry>
        </mxCell>
        <mxCell id="5En9rHPKBQF83rEr6Kjk-144" value="rename(&quot;temp.dat&quot;, &quot;students.dat&quot;);" style="rounded=0;whiteSpace=wrap;html=1;" vertex="1" parent="1">
          <mxGeometry x="1690" y="568" width="140" height="30" as="geometry" />
        </mxCell>
        <mxCell id="5En9rHPKBQF83rEr6Kjk-151" style="edgeStyle=orthogonalEdgeStyle;rounded=0;orthogonalLoop=1;jettySize=auto;html=1;exitX=0.5;exitY=1;exitDx=0;exitDy=0;" edge="1" parent="1" source="5En9rHPKBQF83rEr6Kjk-146">
          <mxGeometry relative="1" as="geometry">
            <mxPoint x="1880" y="700" as="targetPoint" />
            <Array as="points">
              <mxPoint x="1760" y="700" />
            </Array>
          </mxGeometry>
        </mxCell>
        <mxCell id="5En9rHPKBQF83rEr6Kjk-146" value="cout &amp;lt;&amp;lt; &quot;Студенты с&amp;nbsp;&lt;div&gt;такой датой рождения&amp;nbsp;&lt;div&gt;удалены.&quot; &amp;lt;&amp;lt; endl;&lt;/div&gt;&lt;/div&gt;" style="shape=parallelogram;perimeter=parallelogramPerimeter;whiteSpace=wrap;html=1;fixedSize=1;" vertex="1" parent="1">
          <mxGeometry x="1680" y="620" width="160" height="60" as="geometry" />
        </mxCell>
        <mxCell id="5En9rHPKBQF83rEr6Kjk-148" value="cout &amp;lt;&amp;lt; &quot;Студенты с&amp;nbsp;&lt;div&gt;такой датой рождения не найдены.&quot; &amp;lt;&amp;lt; endl;&lt;br&gt;&lt;/div&gt;" style="shape=parallelogram;perimeter=parallelogramPerimeter;whiteSpace=wrap;html=1;fixedSize=1;" vertex="1" parent="1">
          <mxGeometry x="1908" y="520" width="160" height="60" as="geometry" />
        </mxCell>
        <mxCell id="5En9rHPKBQF83rEr6Kjk-149" style="edgeStyle=orthogonalEdgeStyle;rounded=0;orthogonalLoop=1;jettySize=auto;html=1;exitX=0.5;exitY=1;exitDx=0;exitDy=0;" edge="1" parent="1">
          <mxGeometry relative="1" as="geometry">
            <mxPoint x="1988" y="600" as="targetPoint" />
            <mxPoint x="1988" y="580" as="sourcePoint" />
          </mxGeometry>
        </mxCell>
        <mxCell id="5En9rHPKBQF83rEr6Kjk-152" style="edgeStyle=orthogonalEdgeStyle;rounded=0;orthogonalLoop=1;jettySize=auto;html=1;exitX=0.5;exitY=1;exitDx=0;exitDy=0;" edge="1" parent="1" source="5En9rHPKBQF83rEr6Kjk-150">
          <mxGeometry relative="1" as="geometry">
            <mxPoint x="1880" y="700" as="targetPoint" />
            <Array as="points">
              <mxPoint x="1988" y="700" />
            </Array>
          </mxGeometry>
        </mxCell>
        <mxCell id="5En9rHPKBQF83rEr6Kjk-150" value="remove(&quot;temp.dat&quot;);" style="rounded=0;whiteSpace=wrap;html=1;" vertex="1" parent="1">
          <mxGeometry x="1918" y="598" width="140" height="30" as="geometry" />
        </mxCell>
        <mxCell id="5En9rHPKBQF83rEr6Kjk-153" style="edgeStyle=orthogonalEdgeStyle;rounded=0;orthogonalLoop=1;jettySize=auto;html=1;exitX=0.5;exitY=1;exitDx=0;exitDy=0;" edge="1" parent="1">
          <mxGeometry relative="1" as="geometry">
            <mxPoint x="1880" y="720" as="targetPoint" />
            <mxPoint x="1880" y="700" as="sourcePoint" />
          </mxGeometry>
        </mxCell>
        <mxCell id="5En9rHPKBQF83rEr6Kjk-154" value="return;" style="ellipse;whiteSpace=wrap;html=1;" vertex="1" parent="1">
          <mxGeometry x="1820" y="720" width="120" height="40" as="geometry" />
        </mxCell>
        <mxCell id="5En9rHPKBQF83rEr6Kjk-155" value="{" style="text;html=1;align=center;verticalAlign=middle;resizable=0;points=[];autosize=1;strokeColor=none;fillColor=none;" vertex="1" parent="1">
          <mxGeometry x="1775" y="488" width="30" height="30" as="geometry" />
        </mxCell>
        <mxCell id="5En9rHPKBQF83rEr6Kjk-156" value="}" style="text;html=1;align=center;verticalAlign=middle;resizable=0;points=[];autosize=1;strokeColor=none;fillColor=none;" vertex="1" parent="1">
          <mxGeometry x="1795" y="678" width="30" height="30" as="geometry" />
        </mxCell>
        <mxCell id="5En9rHPKBQF83rEr6Kjk-157" value="{" style="text;html=1;align=center;verticalAlign=middle;resizable=0;points=[];autosize=1;strokeColor=none;fillColor=none;" vertex="1" parent="1">
          <mxGeometry x="1945" y="488" width="30" height="30" as="geometry" />
        </mxCell>
        <mxCell id="5En9rHPKBQF83rEr6Kjk-158" value="}" style="text;html=1;align=center;verticalAlign=middle;resizable=0;points=[];autosize=1;strokeColor=none;fillColor=none;" vertex="1" parent="1">
          <mxGeometry x="1995" y="628" width="30" height="30" as="geometry" />
        </mxCell>
        <mxCell id="5En9rHPKBQF83rEr6Kjk-159" value="}" style="text;html=1;align=center;verticalAlign=middle;resizable=0;points=[];autosize=1;strokeColor=none;fillColor=none;" vertex="1" parent="1">
          <mxGeometry x="1935" y="748" width="30" height="30" as="geometry" />
        </mxCell>
        <mxCell id="5En9rHPKBQF83rEr6Kjk-160" style="edgeStyle=orthogonalEdgeStyle;rounded=0;orthogonalLoop=1;jettySize=auto;html=1;exitX=0.5;exitY=1;exitDx=0;exitDy=0;" edge="1" parent="1" source="5En9rHPKBQF83rEr6Kjk-161">
          <mxGeometry relative="1" as="geometry">
            <mxPoint x="2349.666666666667" y="72" as="targetPoint" />
          </mxGeometry>
        </mxCell>
        <mxCell id="5En9rHPKBQF83rEr6Kjk-161" value="void addStudent(FILE* file, Student newStudent, const char* lastName)" style="shape=process;whiteSpace=wrap;html=1;backgroundOutline=1;" vertex="1" parent="1">
          <mxGeometry x="2200" y="20" width="300" height="30" as="geometry" />
        </mxCell>
        <mxCell id="5En9rHPKBQF83rEr6Kjk-162" value="FILE* tempFile = fopen(&quot;temp.dat&quot;, &quot;wb&quot;);" style="rounded=0;whiteSpace=wrap;html=1;" vertex="1" parent="1">
          <mxGeometry x="2260" y="72" width="180" height="30" as="geometry" />
        </mxCell>
        <mxCell id="5En9rHPKBQF83rEr6Kjk-163" style="edgeStyle=orthogonalEdgeStyle;rounded=0;orthogonalLoop=1;jettySize=auto;html=1;exitX=0.5;exitY=1;exitDx=0;exitDy=0;" edge="1" parent="1">
          <mxGeometry relative="1" as="geometry">
            <mxPoint x="2349.666666666667" y="124" as="targetPoint" />
            <mxPoint x="2350" y="102" as="sourcePoint" />
          </mxGeometry>
        </mxCell>
        <mxCell id="5En9rHPKBQF83rEr6Kjk-164" value="&lt;div&gt;fseek(file, 0, SEEK_SET);&lt;/div&gt;" style="rounded=0;whiteSpace=wrap;html=1;" vertex="1" parent="1">
          <mxGeometry x="2280" y="125" width="140" height="30" as="geometry" />
        </mxCell>
        <mxCell id="5En9rHPKBQF83rEr6Kjk-165" value="{" style="text;html=1;align=center;verticalAlign=middle;resizable=0;points=[];autosize=1;strokeColor=none;fillColor=none;" vertex="1" parent="1">
          <mxGeometry x="2235" y="40" width="30" height="30" as="geometry" />
        </mxCell>
        <mxCell id="5En9rHPKBQF83rEr6Kjk-166" style="edgeStyle=orthogonalEdgeStyle;rounded=0;orthogonalLoop=1;jettySize=auto;html=1;exitX=0.5;exitY=1;exitDx=0;exitDy=0;" edge="1" parent="1">
          <mxGeometry relative="1" as="geometry">
            <mxPoint x="2349.666666666667" y="175" as="targetPoint" />
            <mxPoint x="2350" y="153" as="sourcePoint" />
          </mxGeometry>
        </mxCell>
        <mxCell id="5En9rHPKBQF83rEr6Kjk-167" value="&lt;div&gt;Student s;&lt;/div&gt;" style="rounded=0;whiteSpace=wrap;html=1;" vertex="1" parent="1">
          <mxGeometry x="2280" y="176" width="140" height="30" as="geometry" />
        </mxCell>
        <mxCell id="5En9rHPKBQF83rEr6Kjk-168" style="edgeStyle=orthogonalEdgeStyle;rounded=0;orthogonalLoop=1;jettySize=auto;html=1;exitX=0.5;exitY=1;exitDx=0;exitDy=0;" edge="1" parent="1">
          <mxGeometry relative="1" as="geometry">
            <mxPoint x="2349.666666666667" y="229.5" as="targetPoint" />
            <mxPoint x="2350" y="207.5" as="sourcePoint" />
          </mxGeometry>
        </mxCell>
        <mxCell id="5En9rHPKBQF83rEr6Kjk-169" value="&lt;div&gt;bool added = false;&lt;/div&gt;" style="rounded=0;whiteSpace=wrap;html=1;" vertex="1" parent="1">
          <mxGeometry x="2280" y="230.5" width="140" height="30" as="geometry" />
        </mxCell>
        <mxCell id="5En9rHPKBQF83rEr6Kjk-170" style="edgeStyle=orthogonalEdgeStyle;rounded=0;orthogonalLoop=1;jettySize=auto;html=1;exitX=0.5;exitY=1;exitDx=0;exitDy=0;" edge="1" parent="1">
          <mxGeometry relative="1" as="geometry">
            <mxPoint x="2360.142857142857" y="280.5" as="targetPoint" />
            <mxPoint x="2360" y="260.5" as="sourcePoint" />
          </mxGeometry>
        </mxCell>
        <mxCell id="5En9rHPKBQF83rEr6Kjk-171" style="edgeStyle=orthogonalEdgeStyle;rounded=0;orthogonalLoop=1;jettySize=auto;html=1;exitX=0.5;exitY=1;exitDx=0;exitDy=0;" edge="1" parent="1" source="5En9rHPKBQF83rEr6Kjk-173">
          <mxGeometry relative="1" as="geometry">
            <mxPoint x="2360.142857142857" y="350.5" as="targetPoint" />
          </mxGeometry>
        </mxCell>
        <mxCell id="5En9rHPKBQF83rEr6Kjk-172" style="edgeStyle=orthogonalEdgeStyle;rounded=0;orthogonalLoop=1;jettySize=auto;html=1;exitX=1;exitY=0.5;exitDx=0;exitDy=0;" edge="1" parent="1" source="5En9rHPKBQF83rEr6Kjk-173">
          <mxGeometry relative="1" as="geometry">
            <mxPoint x="2670" y="355" as="targetPoint" />
          </mxGeometry>
        </mxCell>
        <mxCell id="5En9rHPKBQF83rEr6Kjk-173" value="&lt;font style=&quot;font-size: 9px;&quot;&gt;while (fread(&amp;amp;s,&amp;nbsp;&lt;/font&gt;&lt;div&gt;&lt;font style=&quot;font-size: 9px;&quot;&gt;sizeof(Student), 1, file)&amp;nbsp;&lt;/font&gt;&lt;/div&gt;&lt;div&gt;&lt;font style=&quot;font-size: 9px;&quot;&gt;== 1)&lt;/font&gt;&lt;/div&gt;" style="rhombus;whiteSpace=wrap;html=1;" vertex="1" parent="1">
          <mxGeometry x="2285" y="280.5" width="150" height="50" as="geometry" />
        </mxCell>
        <mxCell id="5En9rHPKBQF83rEr6Kjk-174" style="edgeStyle=orthogonalEdgeStyle;rounded=0;orthogonalLoop=1;jettySize=auto;html=1;exitX=0.5;exitY=1;exitDx=0;exitDy=0;" edge="1" parent="1" target="5En9rHPKBQF83rEr6Kjk-177">
          <mxGeometry relative="1" as="geometry">
            <mxPoint x="2360" y="330.5" as="sourcePoint" />
          </mxGeometry>
        </mxCell>
        <mxCell id="5En9rHPKBQF83rEr6Kjk-175" style="edgeStyle=orthogonalEdgeStyle;rounded=0;orthogonalLoop=1;jettySize=auto;html=1;exitX=0;exitY=0.5;exitDx=0;exitDy=0;" edge="1" parent="1" source="5En9rHPKBQF83rEr6Kjk-177">
          <mxGeometry relative="1" as="geometry">
            <mxPoint x="2270" y="410.5" as="targetPoint" />
          </mxGeometry>
        </mxCell>
        <mxCell id="5En9rHPKBQF83rEr6Kjk-177" value="&lt;span style=&quot;font-size: 8px;&quot;&gt;&amp;nbsp;if (added == false &amp;amp;&amp;amp; strcmp(s.lastName,&amp;nbsp;&lt;/span&gt;&lt;div&gt;&lt;span style=&quot;font-size: 8px;&quot;&gt;lastName) == 0)&amp;nbsp;&lt;/span&gt;&lt;/div&gt;" style="rhombus;whiteSpace=wrap;html=1;" vertex="1" parent="1">
          <mxGeometry x="2285" y="350.5" width="150" height="59.5" as="geometry" />
        </mxCell>
        <mxCell id="5En9rHPKBQF83rEr6Kjk-178" style="edgeStyle=orthogonalEdgeStyle;rounded=0;orthogonalLoop=1;jettySize=auto;html=1;exitX=0.5;exitY=1;exitDx=0;exitDy=0;" edge="1" parent="1" source="5En9rHPKBQF83rEr6Kjk-179">
          <mxGeometry relative="1" as="geometry">
            <mxPoint x="2380" y="510.5" as="targetPoint" />
            <Array as="points">
              <mxPoint x="2270" y="510.5" />
              <mxPoint x="2370" y="510.5" />
            </Array>
          </mxGeometry>
        </mxCell>
        <mxCell id="5En9rHPKBQF83rEr6Kjk-179" value="&lt;font style=&quot;font-size: 10px;&quot;&gt;fwrite(&amp;amp;newStudent, sizeof(Student), 1, tempFile);&lt;/font&gt;" style="rounded=0;whiteSpace=wrap;html=1;" vertex="1" parent="1">
          <mxGeometry x="2200" y="410.5" width="140" height="30" as="geometry" />
        </mxCell>
        <mxCell id="5En9rHPKBQF83rEr6Kjk-180" style="edgeStyle=orthogonalEdgeStyle;rounded=0;orthogonalLoop=1;jettySize=auto;html=1;exitX=1;exitY=0.5;exitDx=0;exitDy=0;" edge="1" parent="1" source="5En9rHPKBQF83rEr6Kjk-177">
          <mxGeometry relative="1" as="geometry">
            <mxPoint x="2380" y="510.5" as="targetPoint" />
            <Array as="points">
              <mxPoint x="2489" y="380" />
              <mxPoint x="2489" y="511" />
            </Array>
            <mxPoint x="2488.92" y="439.28" as="sourcePoint" />
          </mxGeometry>
        </mxCell>
        <mxCell id="5En9rHPKBQF83rEr6Kjk-181" value="" style="endArrow=classic;html=1;rounded=0;" edge="1" parent="1">
          <mxGeometry width="50" height="50" relative="1" as="geometry">
            <mxPoint x="2380" y="515" as="sourcePoint" />
            <mxPoint x="2360" y="270.5" as="targetPoint" />
            <Array as="points">
              <mxPoint x="2380" y="590" />
              <mxPoint x="2290" y="590" />
              <mxPoint x="2190" y="590" />
              <mxPoint x="2190" y="270.5" />
            </Array>
          </mxGeometry>
        </mxCell>
        <mxCell id="5En9rHPKBQF83rEr6Kjk-182" value="{" style="text;html=1;align=center;verticalAlign=middle;resizable=0;points=[];autosize=1;strokeColor=none;fillColor=none;" vertex="1" parent="1">
          <mxGeometry x="2295" y="318.5" width="30" height="30" as="geometry" />
        </mxCell>
        <mxCell id="5En9rHPKBQF83rEr6Kjk-183" value="}" style="text;html=1;align=center;verticalAlign=middle;resizable=0;points=[];autosize=1;strokeColor=none;fillColor=none;" vertex="1" parent="1">
          <mxGeometry x="2380" y="505" width="30" height="30" as="geometry" />
        </mxCell>
        <mxCell id="5En9rHPKBQF83rEr6Kjk-187" style="edgeStyle=orthogonalEdgeStyle;rounded=0;orthogonalLoop=1;jettySize=auto;html=1;exitX=0.5;exitY=1;exitDx=0;exitDy=0;" edge="1" parent="1">
          <mxGeometry relative="1" as="geometry">
            <mxPoint x="2670" y="348" as="targetPoint" />
            <mxPoint x="2670" y="328" as="sourcePoint" />
          </mxGeometry>
        </mxCell>
        <mxCell id="5En9rHPKBQF83rEr6Kjk-189" style="edgeStyle=orthogonalEdgeStyle;rounded=0;orthogonalLoop=1;jettySize=auto;html=1;exitX=0;exitY=0.5;exitDx=0;exitDy=0;" edge="1" parent="1" source="5En9rHPKBQF83rEr6Kjk-191">
          <mxGeometry relative="1" as="geometry">
            <mxPoint x="2580" y="410" as="targetPoint" />
          </mxGeometry>
        </mxCell>
        <mxCell id="5En9rHPKBQF83rEr6Kjk-190" style="edgeStyle=orthogonalEdgeStyle;rounded=0;orthogonalLoop=1;jettySize=auto;html=1;exitX=1;exitY=0.5;exitDx=0;exitDy=0;" edge="1" parent="1" source="5En9rHPKBQF83rEr6Kjk-191">
          <mxGeometry relative="1" as="geometry">
            <mxPoint x="2810" y="410" as="targetPoint" />
          </mxGeometry>
        </mxCell>
        <mxCell id="5En9rHPKBQF83rEr6Kjk-191" value="&lt;font style=&quot;font-size: 10px;&quot;&gt;if (added == false)&lt;/font&gt;" style="rhombus;whiteSpace=wrap;html=1;" vertex="1" parent="1">
          <mxGeometry x="2620" y="348" width="100" height="52" as="geometry" />
        </mxCell>
        <mxCell id="5En9rHPKBQF83rEr6Kjk-196" style="edgeStyle=orthogonalEdgeStyle;rounded=0;orthogonalLoop=1;jettySize=auto;html=1;exitX=0.5;exitY=1;exitDx=0;exitDy=0;" edge="1" parent="1" source="5En9rHPKBQF83rEr6Kjk-197">
          <mxGeometry relative="1" as="geometry">
            <mxPoint x="2700" y="590" as="targetPoint" />
            <Array as="points">
              <mxPoint x="2580" y="590" />
            </Array>
          </mxGeometry>
        </mxCell>
        <mxCell id="5En9rHPKBQF83rEr6Kjk-197" value="&lt;font style=&quot;font-size: 11px;&quot;&gt;cout &amp;lt;&amp;lt; &quot;Студента с такой фамилией нет в&lt;/font&gt;&lt;div&gt;&lt;font style=&quot;font-size: 11px;&quot;&gt;файле!&quot; &amp;lt;&amp;lt; endl;&lt;/font&gt;&lt;br&gt;&lt;/div&gt;" style="shape=parallelogram;perimeter=parallelogramPerimeter;whiteSpace=wrap;html=1;fixedSize=1;" vertex="1" parent="1">
          <mxGeometry x="2500" y="410.5" width="160" height="60" as="geometry" />
        </mxCell>
        <mxCell id="5En9rHPKBQF83rEr6Kjk-198" value="&lt;div&gt;cout &amp;lt;&amp;lt; &quot;Студент&amp;nbsp;&lt;/div&gt;&lt;div&gt;добавлен.&quot; &amp;lt;&amp;lt; endl;&lt;br&gt;&lt;/div&gt;" style="shape=parallelogram;perimeter=parallelogramPerimeter;whiteSpace=wrap;html=1;fixedSize=1;" vertex="1" parent="1">
          <mxGeometry x="2728" y="410" width="160" height="60" as="geometry" />
        </mxCell>
        <mxCell id="5En9rHPKBQF83rEr6Kjk-200" style="edgeStyle=orthogonalEdgeStyle;rounded=0;orthogonalLoop=1;jettySize=auto;html=1;exitX=0.5;exitY=1;exitDx=0;exitDy=0;" edge="1" parent="1" source="5En9rHPKBQF83rEr6Kjk-198">
          <mxGeometry relative="1" as="geometry">
            <mxPoint x="2700" y="590" as="targetPoint" />
            <Array as="points">
              <mxPoint x="2808" y="590" />
            </Array>
            <mxPoint x="2808" y="518" as="sourcePoint" />
          </mxGeometry>
        </mxCell>
        <mxCell id="5En9rHPKBQF83rEr6Kjk-202" style="edgeStyle=orthogonalEdgeStyle;rounded=0;orthogonalLoop=1;jettySize=auto;html=1;exitX=0.5;exitY=1;exitDx=0;exitDy=0;" edge="1" parent="1">
          <mxGeometry relative="1" as="geometry">
            <mxPoint x="2700" y="610" as="targetPoint" />
            <mxPoint x="2700" y="590" as="sourcePoint" />
          </mxGeometry>
        </mxCell>
        <mxCell id="5En9rHPKBQF83rEr6Kjk-209" value="&lt;font style=&quot;font-size: 10px;&quot;&gt;added = true;&lt;/font&gt;" style="rounded=0;whiteSpace=wrap;html=1;" vertex="1" parent="1">
          <mxGeometry x="2200" y="453" width="140" height="30" as="geometry" />
        </mxCell>
        <mxCell id="5En9rHPKBQF83rEr6Kjk-210" value="&lt;font style=&quot;font-size: 10px;&quot;&gt;fwrite(&amp;amp;s, sizeof(Student), 1, tempFile);&lt;/font&gt;" style="rounded=0;whiteSpace=wrap;html=1;" vertex="1" parent="1">
          <mxGeometry x="2310" y="533" width="140" height="30" as="geometry" />
        </mxCell>
        <mxCell id="5En9rHPKBQF83rEr6Kjk-212" value="&lt;div&gt;fclose(file);&lt;/div&gt;" style="rounded=0;whiteSpace=wrap;html=1;" vertex="1" parent="1">
          <mxGeometry x="2630" y="608" width="140" height="30" as="geometry" />
        </mxCell>
        <mxCell id="5En9rHPKBQF83rEr6Kjk-213" style="edgeStyle=orthogonalEdgeStyle;rounded=0;orthogonalLoop=1;jettySize=auto;html=1;exitX=0.5;exitY=1;exitDx=0;exitDy=0;" edge="1" parent="1">
          <mxGeometry relative="1" as="geometry">
            <mxPoint x="2700" y="658" as="targetPoint" />
            <mxPoint x="2700" y="638" as="sourcePoint" />
          </mxGeometry>
        </mxCell>
        <mxCell id="5En9rHPKBQF83rEr6Kjk-214" value="&lt;div&gt;fclose(tempFile);&lt;/div&gt;" style="rounded=0;whiteSpace=wrap;html=1;" vertex="1" parent="1">
          <mxGeometry x="2630" y="656" width="140" height="30" as="geometry" />
        </mxCell>
        <mxCell id="5En9rHPKBQF83rEr6Kjk-215" style="edgeStyle=orthogonalEdgeStyle;rounded=0;orthogonalLoop=1;jettySize=auto;html=1;exitX=0.5;exitY=1;exitDx=0;exitDy=0;" edge="1" parent="1">
          <mxGeometry relative="1" as="geometry">
            <mxPoint x="2700" y="702" as="targetPoint" />
            <mxPoint x="2700" y="682" as="sourcePoint" />
          </mxGeometry>
        </mxCell>
        <mxCell id="5En9rHPKBQF83rEr6Kjk-216" value="&lt;div&gt;remove(&quot;students.dat&quot;);&lt;/div&gt;" style="rounded=0;whiteSpace=wrap;html=1;" vertex="1" parent="1">
          <mxGeometry x="2630" y="700" width="140" height="30" as="geometry" />
        </mxCell>
        <mxCell id="5En9rHPKBQF83rEr6Kjk-217" style="edgeStyle=orthogonalEdgeStyle;rounded=0;orthogonalLoop=1;jettySize=auto;html=1;exitX=0.5;exitY=1;exitDx=0;exitDy=0;" edge="1" parent="1">
          <mxGeometry relative="1" as="geometry">
            <mxPoint x="2700" y="750" as="targetPoint" />
            <mxPoint x="2700" y="730" as="sourcePoint" />
          </mxGeometry>
        </mxCell>
        <mxCell id="5En9rHPKBQF83rEr6Kjk-219" style="edgeStyle=orthogonalEdgeStyle;rounded=0;orthogonalLoop=1;jettySize=auto;html=1;exitX=0.5;exitY=1;exitDx=0;exitDy=0;" edge="1" parent="1" source="5En9rHPKBQF83rEr6Kjk-218">
          <mxGeometry relative="1" as="geometry">
            <mxPoint x="2700.051282051282" y="790" as="targetPoint" />
          </mxGeometry>
        </mxCell>
        <mxCell id="5En9rHPKBQF83rEr6Kjk-218" value="&lt;div&gt;rename(&quot;temp.dat&quot;, &quot;students.dat&quot;);&lt;/div&gt;" style="rounded=0;whiteSpace=wrap;html=1;" vertex="1" parent="1">
          <mxGeometry x="2630" y="748" width="140" height="30" as="geometry" />
        </mxCell>
        <mxCell id="5En9rHPKBQF83rEr6Kjk-220" value="return;" style="ellipse;whiteSpace=wrap;html=1;" vertex="1" parent="1">
          <mxGeometry x="2640" y="790" width="120" height="40" as="geometry" />
        </mxCell>
        <mxCell id="5En9rHPKBQF83rEr6Kjk-221" value="" style="edgeStyle=orthogonalEdgeStyle;rounded=0;orthogonalLoop=1;jettySize=auto;html=1;" edge="1" source="5En9rHPKBQF83rEr6Kjk-222" parent="1">
          <mxGeometry relative="1" as="geometry">
            <mxPoint x="800" y="890" as="targetPoint" />
          </mxGeometry>
        </mxCell>
        <mxCell id="5En9rHPKBQF83rEr6Kjk-222" value="Начало" style="ellipse;whiteSpace=wrap;html=1;" vertex="1" parent="1">
          <mxGeometry x="740" y="820" width="120" height="40" as="geometry" />
        </mxCell>
        <mxCell id="5En9rHPKBQF83rEr6Kjk-223" value="" style="edgeStyle=orthogonalEdgeStyle;rounded=0;orthogonalLoop=1;jettySize=auto;html=1;" edge="1" source="5En9rHPKBQF83rEr6Kjk-224" parent="1">
          <mxGeometry relative="1" as="geometry">
            <mxPoint x="800" y="940" as="targetPoint" />
          </mxGeometry>
        </mxCell>
        <mxCell id="5En9rHPKBQF83rEr6Kjk-224" value="int main()" style="shape=process;whiteSpace=wrap;html=1;backgroundOutline=1;" vertex="1" parent="1">
          <mxGeometry x="740" y="890" width="120" height="30" as="geometry" />
        </mxCell>
        <mxCell id="5En9rHPKBQF83rEr6Kjk-227" value="setlocale(LC_ALL, &quot;Russian&quot;);" style="rounded=0;whiteSpace=wrap;html=1;" vertex="1" parent="1">
          <mxGeometry x="740" y="940" width="120" height="30" as="geometry" />
        </mxCell>
        <mxCell id="5En9rHPKBQF83rEr6Kjk-228" value="" style="edgeStyle=orthogonalEdgeStyle;rounded=0;orthogonalLoop=1;jettySize=auto;html=1;" edge="1" parent="1">
          <mxGeometry relative="1" as="geometry">
            <mxPoint x="800" y="970" as="sourcePoint" />
            <mxPoint x="800" y="990" as="targetPoint" />
          </mxGeometry>
        </mxCell>
        <mxCell id="5En9rHPKBQF83rEr6Kjk-229" value="&lt;div&gt;#define _CRT_SECURE_NO_WARNINGS&lt;/div&gt;&lt;div&gt;#include &amp;lt;iostream&amp;gt;&lt;/div&gt;&lt;div&gt;#include &amp;lt;cstdio&amp;gt;&lt;/div&gt;&lt;div&gt;using namespace std;&lt;/div&gt;&lt;div&gt;FILE* file = fopen(&quot;students.dat&quot;, &quot;r+b&quot;);&lt;br&gt;&lt;/div&gt;&lt;div&gt;int choice;&lt;br&gt;&lt;/div&gt;" style="strokeWidth=2;html=1;shape=mxgraph.flowchart.annotation_2;align=left;labelPosition=right;pointerEvents=1;" vertex="1" parent="1">
          <mxGeometry x="880" y="820" width="50" height="100" as="geometry" />
        </mxCell>
        <mxCell id="5En9rHPKBQF83rEr6Kjk-230" value="" style="endArrow=none;dashed=1;html=1;rounded=0;entryX=-0.04;entryY=0.503;entryDx=0;entryDy=0;entryPerimeter=0;" edge="1" target="5En9rHPKBQF83rEr6Kjk-229" parent="1">
          <mxGeometry width="50" height="50" relative="1" as="geometry">
            <mxPoint x="800" y="870" as="sourcePoint" />
            <mxPoint x="870" y="870" as="targetPoint" />
          </mxGeometry>
        </mxCell>
        <mxCell id="5En9rHPKBQF83rEr6Kjk-232" style="edgeStyle=orthogonalEdgeStyle;rounded=0;orthogonalLoop=1;jettySize=auto;html=1;exitX=0.5;exitY=1;exitDx=0;exitDy=0;" edge="1" parent="1" source="5En9rHPKBQF83rEr6Kjk-231">
          <mxGeometry relative="1" as="geometry">
            <mxPoint x="800" y="1040" as="targetPoint" />
          </mxGeometry>
        </mxCell>
        <mxCell id="5En9rHPKBQF83rEr6Kjk-231" value="&amp;nbsp;addNewStudent(file, s);" style="rounded=0;whiteSpace=wrap;html=1;" vertex="1" parent="1">
          <mxGeometry x="740" y="990" width="120" height="30" as="geometry" />
        </mxCell>
        <mxCell id="5En9rHPKBQF83rEr6Kjk-235" style="edgeStyle=orthogonalEdgeStyle;rounded=0;orthogonalLoop=1;jettySize=auto;html=1;exitX=0.5;exitY=1;exitDx=0;exitDy=0;" edge="1" parent="1" source="5En9rHPKBQF83rEr6Kjk-236">
          <mxGeometry relative="1" as="geometry">
            <mxPoint x="800" y="1090" as="targetPoint" />
          </mxGeometry>
        </mxCell>
        <mxCell id="5En9rHPKBQF83rEr6Kjk-236" value="printFile(file);" style="rounded=0;whiteSpace=wrap;html=1;" vertex="1" parent="1">
          <mxGeometry x="740" y="1040" width="120" height="30" as="geometry" />
        </mxCell>
        <mxCell id="5En9rHPKBQF83rEr6Kjk-237" style="edgeStyle=orthogonalEdgeStyle;rounded=0;orthogonalLoop=1;jettySize=auto;html=1;exitX=0.5;exitY=1;exitDx=0;exitDy=0;" edge="1" parent="1" source="5En9rHPKBQF83rEr6Kjk-238">
          <mxGeometry relative="1" as="geometry">
            <mxPoint x="800" y="1140" as="targetPoint" />
          </mxGeometry>
        </mxCell>
        <mxCell id="5En9rHPKBQF83rEr6Kjk-238" value="deleteStudent(file, birthDate);" style="rounded=0;whiteSpace=wrap;html=1;" vertex="1" parent="1">
          <mxGeometry x="740" y="1090" width="120" height="30" as="geometry" />
        </mxCell>
        <mxCell id="5En9rHPKBQF83rEr6Kjk-239" style="edgeStyle=orthogonalEdgeStyle;rounded=0;orthogonalLoop=1;jettySize=auto;html=1;exitX=0.5;exitY=1;exitDx=0;exitDy=0;" edge="1" parent="1" source="5En9rHPKBQF83rEr6Kjk-240">
          <mxGeometry relative="1" as="geometry">
            <mxPoint x="800" y="1190" as="targetPoint" />
          </mxGeometry>
        </mxCell>
        <mxCell id="5En9rHPKBQF83rEr6Kjk-240" value="addStudent(file, s, lastName);" style="rounded=0;whiteSpace=wrap;html=1;" vertex="1" parent="1">
          <mxGeometry x="740" y="1140" width="120" height="30" as="geometry" />
        </mxCell>
        <mxCell id="5En9rHPKBQF83rEr6Kjk-242" style="edgeStyle=orthogonalEdgeStyle;rounded=0;orthogonalLoop=1;jettySize=auto;html=1;exitX=0.5;exitY=1;exitDx=0;exitDy=0;" edge="1" parent="1" source="5En9rHPKBQF83rEr6Kjk-241">
          <mxGeometry relative="1" as="geometry">
            <mxPoint x="800.0512820512822" y="1240" as="targetPoint" />
          </mxGeometry>
        </mxCell>
        <mxCell id="5En9rHPKBQF83rEr6Kjk-241" value="&amp;nbsp;fclose(file);" style="rounded=0;whiteSpace=wrap;html=1;" vertex="1" parent="1">
          <mxGeometry x="740" y="1190" width="120" height="30" as="geometry" />
        </mxCell>
        <mxCell id="5En9rHPKBQF83rEr6Kjk-243" value="return 0;" style="ellipse;whiteSpace=wrap;html=1;" vertex="1" parent="1">
          <mxGeometry x="740" y="1240" width="120" height="40" as="geometry" />
        </mxCell>
        <mxCell id="5En9rHPKBQF83rEr6Kjk-244" value="}" style="text;html=1;align=center;verticalAlign=middle;resizable=0;points=[];autosize=1;strokeColor=none;fillColor=none;" vertex="1" parent="1">
          <mxGeometry x="2775" y="818" width="30" height="30" as="geometry" />
        </mxCell>
      </root>
    </mxGraphModel>
  </diagram>
</mxfile>
